<mxfile host="app.diagrams.net" modified="2022-04-17T14:15:27.578Z" agent="5.0 (Windows NT 10.0; Win64; x64) AppleWebKit/537.36 (KHTML, like Gecko) Chrome/100.0.4896.75 Safari/537.36" etag="joMFTBM039fIgTjVS5Kb" version="17.4.4" type="github">
  <diagram id="Ss-zLGsGptUb900ayheI" name="第 1 页">
    <mxGraphModel dx="782" dy="436" grid="1" gridSize="10" guides="1" tooltips="1" connect="1" arrows="1" fold="1" page="1" pageScale="1" pageWidth="827" pageHeight="1169" math="0" shadow="0">
      <root>
        <mxCell id="0" />
        <mxCell id="1" parent="0" />
        <mxCell id="xXIZn4CpnWQ5mHO0k7mb-3" value="" style="edgeStyle=orthogonalEdgeStyle;rounded=0;orthogonalLoop=1;jettySize=auto;html=1;" edge="1" parent="1" source="xXIZn4CpnWQ5mHO0k7mb-1" target="xXIZn4CpnWQ5mHO0k7mb-2">
          <mxGeometry relative="1" as="geometry" />
        </mxCell>
        <mxCell id="xXIZn4CpnWQ5mHO0k7mb-1" value="@LoadBalanced" style="rounded=0;whiteSpace=wrap;html=1;" vertex="1" parent="1">
          <mxGeometry x="120" y="110" width="120" height="30" as="geometry" />
        </mxCell>
        <mxCell id="xXIZn4CpnWQ5mHO0k7mb-2" value="LoadBalancerClient" style="whiteSpace=wrap;html=1;rounded=0;" vertex="1" parent="1">
          <mxGeometry x="120" y="205" width="120" height="25" as="geometry" />
        </mxCell>
        <mxCell id="xXIZn4CpnWQ5mHO0k7mb-7" style="edgeStyle=orthogonalEdgeStyle;rounded=0;orthogonalLoop=1;jettySize=auto;html=1;entryX=1;entryY=0.5;entryDx=0;entryDy=0;endArrow=block;endFill=0;dashed=1;" edge="1" parent="1" source="xXIZn4CpnWQ5mHO0k7mb-5" target="xXIZn4CpnWQ5mHO0k7mb-2">
          <mxGeometry relative="1" as="geometry" />
        </mxCell>
        <mxCell id="xXIZn4CpnWQ5mHO0k7mb-10" value="实现" style="edgeLabel;html=1;align=center;verticalAlign=middle;resizable=0;points=[];" vertex="1" connectable="0" parent="xXIZn4CpnWQ5mHO0k7mb-7">
          <mxGeometry x="0.2359" relative="1" as="geometry">
            <mxPoint x="20" as="offset" />
          </mxGeometry>
        </mxCell>
        <mxCell id="xXIZn4CpnWQ5mHO0k7mb-18" style="edgeStyle=orthogonalEdgeStyle;rounded=0;orthogonalLoop=1;jettySize=auto;html=1;endArrow=classic;endFill=1;" edge="1" parent="1" source="xXIZn4CpnWQ5mHO0k7mb-5" target="xXIZn4CpnWQ5mHO0k7mb-11">
          <mxGeometry relative="1" as="geometry" />
        </mxCell>
        <mxCell id="xXIZn4CpnWQ5mHO0k7mb-20" value="@ConditionalOnBean" style="edgeLabel;html=1;align=center;verticalAlign=middle;resizable=0;points=[];" vertex="1" connectable="0" parent="xXIZn4CpnWQ5mHO0k7mb-18">
          <mxGeometry x="-0.3058" y="-1" relative="1" as="geometry">
            <mxPoint x="20" as="offset" />
          </mxGeometry>
        </mxCell>
        <mxCell id="xXIZn4CpnWQ5mHO0k7mb-5" value="RibbonLoadBalancerClient" style="whiteSpace=wrap;html=1;rounded=0;" vertex="1" parent="1">
          <mxGeometry x="370" y="202.5" width="160" height="27.5" as="geometry" />
        </mxCell>
        <mxCell id="xXIZn4CpnWQ5mHO0k7mb-9" style="edgeStyle=orthogonalEdgeStyle;rounded=0;orthogonalLoop=1;jettySize=auto;html=1;entryX=0.5;entryY=0;entryDx=0;entryDy=0;endArrow=classic;endFill=1;" edge="1" parent="1" source="xXIZn4CpnWQ5mHO0k7mb-8" target="xXIZn4CpnWQ5mHO0k7mb-5">
          <mxGeometry relative="1" as="geometry" />
        </mxCell>
        <mxCell id="xXIZn4CpnWQ5mHO0k7mb-17" value="@Bean" style="edgeLabel;html=1;align=center;verticalAlign=middle;resizable=0;points=[];" vertex="1" connectable="0" parent="xXIZn4CpnWQ5mHO0k7mb-9">
          <mxGeometry x="0.062" relative="1" as="geometry">
            <mxPoint as="offset" />
          </mxGeometry>
        </mxCell>
        <mxCell id="xXIZn4CpnWQ5mHO0k7mb-12" value="" style="edgeStyle=orthogonalEdgeStyle;rounded=0;orthogonalLoop=1;jettySize=auto;html=1;endArrow=classic;endFill=1;" edge="1" parent="1" source="xXIZn4CpnWQ5mHO0k7mb-8" target="xXIZn4CpnWQ5mHO0k7mb-11">
          <mxGeometry relative="1" as="geometry" />
        </mxCell>
        <mxCell id="xXIZn4CpnWQ5mHO0k7mb-16" value="@AutoConfigureBefore" style="edgeLabel;html=1;align=center;verticalAlign=middle;resizable=0;points=[];" vertex="1" connectable="0" parent="xXIZn4CpnWQ5mHO0k7mb-12">
          <mxGeometry x="-0.3744" y="1" relative="1" as="geometry">
            <mxPoint x="-1" y="12" as="offset" />
          </mxGeometry>
        </mxCell>
        <mxCell id="xXIZn4CpnWQ5mHO0k7mb-14" value="" style="edgeStyle=orthogonalEdgeStyle;rounded=0;orthogonalLoop=1;jettySize=auto;html=1;endArrow=classic;endFill=1;" edge="1" parent="1" source="xXIZn4CpnWQ5mHO0k7mb-8" target="xXIZn4CpnWQ5mHO0k7mb-13">
          <mxGeometry relative="1" as="geometry" />
        </mxCell>
        <mxCell id="xXIZn4CpnWQ5mHO0k7mb-15" value="@Bean" style="edgeLabel;html=1;align=center;verticalAlign=middle;resizable=0;points=[];" vertex="1" connectable="0" parent="xXIZn4CpnWQ5mHO0k7mb-14">
          <mxGeometry x="-0.2083" y="-3" relative="1" as="geometry">
            <mxPoint as="offset" />
          </mxGeometry>
        </mxCell>
        <mxCell id="xXIZn4CpnWQ5mHO0k7mb-8" value="RibbonAutoConfiguration" style="rounded=0;whiteSpace=wrap;html=1;" vertex="1" parent="1">
          <mxGeometry x="730" y="110" width="180" height="30" as="geometry" />
        </mxCell>
        <mxCell id="xXIZn4CpnWQ5mHO0k7mb-22" value="" style="edgeStyle=orthogonalEdgeStyle;rounded=0;orthogonalLoop=1;jettySize=auto;html=1;endArrow=classic;endFill=1;" edge="1" parent="1" source="xXIZn4CpnWQ5mHO0k7mb-11" target="xXIZn4CpnWQ5mHO0k7mb-21">
          <mxGeometry relative="1" as="geometry" />
        </mxCell>
        <mxCell id="xXIZn4CpnWQ5mHO0k7mb-23" value="@Bean" style="edgeLabel;html=1;align=center;verticalAlign=middle;resizable=0;points=[];" vertex="1" connectable="0" parent="xXIZn4CpnWQ5mHO0k7mb-22">
          <mxGeometry x="-0.2303" y="-2" relative="1" as="geometry">
            <mxPoint as="offset" />
          </mxGeometry>
        </mxCell>
        <mxCell id="xXIZn4CpnWQ5mHO0k7mb-11" value="LoadBalancerAutoConfiguration" style="whiteSpace=wrap;html=1;rounded=0;" vertex="1" parent="1">
          <mxGeometry x="730" y="203.75" width="180" height="26.25" as="geometry" />
        </mxCell>
        <mxCell id="xXIZn4CpnWQ5mHO0k7mb-13" value="SpringClientFactory" style="whiteSpace=wrap;html=1;rounded=0;" vertex="1" parent="1">
          <mxGeometry x="1000" y="110" width="120" height="30" as="geometry" />
        </mxCell>
        <mxCell id="xXIZn4CpnWQ5mHO0k7mb-19" style="edgeStyle=orthogonalEdgeStyle;rounded=0;orthogonalLoop=1;jettySize=auto;html=1;exitX=0.5;exitY=1;exitDx=0;exitDy=0;endArrow=classic;endFill=1;" edge="1" parent="1" source="xXIZn4CpnWQ5mHO0k7mb-11" target="xXIZn4CpnWQ5mHO0k7mb-11">
          <mxGeometry relative="1" as="geometry" />
        </mxCell>
        <mxCell id="xXIZn4CpnWQ5mHO0k7mb-21" value="" style="whiteSpace=wrap;html=1;rounded=0;" vertex="1" parent="1">
          <mxGeometry x="1000" y="186.875" width="120" height="60" as="geometry" />
        </mxCell>
      </root>
    </mxGraphModel>
  </diagram>
</mxfile>
